<?xml version="1.0" encoding="UTF-8" standalone="no"?>
<!-- Generator: Adobe Illustrator 15.0.0, SVG Export Plug-In . SVG Version: 6.00 Build 0)  -->

<svg
   xmlns:dc="http://purl.org/dc/elements/1.1/"
   xmlns:cc="http://creativecommons.org/ns#"
   xmlns:rdf="http://www.w3.org/1999/02/22-rdf-syntax-ns#"
   xmlns:svg="http://www.w3.org/2000/svg"
   xmlns="http://www.w3.org/2000/svg"
   xmlns:xlink="http://www.w3.org/1999/xlink"
   xmlns:sodipodi="http://sodipodi.sourceforge.net/DTD/sodipodi-0.dtd"
   xmlns:inkscape="http://www.inkscape.org/namespaces/inkscape"
   version="1.1"
   id="Layer_1"
   x="0px"
   y="0px"
   width="595.275px"
   height="841.89px"
   viewBox="0 0 595.275 841.89"
   enable-background="new 0 0 595.275 841.89"
   xml:space="preserve"
   inkscape:version="0.48.0 r9654"
   sodipodi:docname="liblog_positivo-Transparent.svg"><metadata
   id="metadata37"><rdf:RDF><cc:Work
       rdf:about=""><dc:format>image/svg+xml</dc:format><dc:type
         rdf:resource="http://purl.org/dc/dcmitype/StillImage" /><dc:title></dc:title></cc:Work></rdf:RDF></metadata><defs
   id="defs35" /><sodipodi:namedview
   pagecolor="#ffffff"
   bordercolor="#666666"
   borderopacity="1"
   objecttolerance="10"
   gridtolerance="10"
   guidetolerance="10"
   inkscape:pageopacity="0"
   inkscape:pageshadow="2"
   inkscape:window-width="1433"
   inkscape:window-height="814"
   id="namedview33"
   showgrid="false"
   inkscape:zoom="2.4801339"
   inkscape:cx="273.75943"
   inkscape:cy="403.04916"
   inkscape:window-x="0"
   inkscape:window-y="0"
   inkscape:window-maximized="0"
   inkscape:current-layer="g3" />
<g
   id="g3">
	<polygon
   display="none"
   fill="#FFFFFF"
   points="154,315.889 439.811,315.889 439.811,527.511 154,527.511 154,315.889  "
   id="polygon5" />
	
	
	
	
	
	
	<path
   sodipodi:type="inkscape:offset"
   inkscape:radius="0"
   inkscape:original="M 265.78125 337.71875 C 263.31303 337.85217 261.20163 339.45037 260.84375 341.65625 C 260.43475 344.17725 262.468 346.522 265.375 346.875 C 268.283 347.23 270.966 345.4585 271.375 342.9375 C 271.784 340.4165 269.75175 338.104 266.84375 337.75 C 266.48025 337.7058 266.13385 337.69965 265.78125 337.71875 z M 287.96875 338.5625 C 285.7458 338.68265 283.85325 340.16912 283.53125 342.15625 C 283.16325 344.42725 284.97575 346.52475 287.59375 346.84375 C 290.21275 347.16275 292.632 345.5835 293 343.3125 C 293.368 341.0425 291.5565 338.944 288.9375 338.625 C 288.61012 338.5851 288.28631 338.5453 287.96875 338.5625 z M 243.125 339.84375 C 240.41152 339.99064 238.08038 341.79412 237.6875 344.21875 C 237.2385 346.99075 239.45925 349.5475 242.65625 349.9375 C 245.85225 350.3265 248.83225 348.396 249.28125 345.625 C 249.72925 342.853 247.5095 340.29625 244.3125 339.90625 C 243.91287 339.85765 243.51264 339.82275 243.125 339.84375 z M 308.96875 340.03125 C 306.99042 340.13793 305.3165 341.41912 305.03125 343.1875 C 304.70325 345.2075 306.32525 347.091 308.65625 347.375 C 310.98625 347.659 313.14075 346.23975 313.46875 344.21875 C 313.79475 342.19875 312.17375 340.3465 309.84375 340.0625 C 309.55237 340.027 309.25137 340.01595 308.96875 340.03125 z M 328.875 341.90625 C 327.14258 341.99965 325.68863 343.13875 325.4375 344.6875 C 325.1505 346.4575 326.55275 348.09475 328.59375 348.34375 C 330.63675 348.59275 332.5255 347.36375 332.8125 345.59375 C 333.0995 343.82375 331.666 342.1865 329.625 341.9375 C 329.36987 341.9064 329.12249 341.89285 328.875 341.90625 z M 219.40625 345.09375 C 216.44797 345.25393 213.92875 347.1995 213.5 349.84375 C 213.011 352.86475 215.4525 355.66875 218.9375 356.09375 C 222.4225 356.51775 225.636 354.397 226.125 351.375 C 226.616 348.353 224.20375 345.55 220.71875 345.125 C 220.28312 345.072 219.82886 345.07085 219.40625 345.09375 z M 348.5 345.625 C 347.01302 345.7056 345.74825 346.70125 345.53125 348.03125 C 345.28525 349.55025 346.495 350.94325 348.25 351.15625 C 350.002 351.37025 351.629 350.3315 351.875 348.8125 C 352.123 347.2935 350.877 345.87025 349.125 345.65625 C 348.906 345.62965 348.71243 345.6134 348.5 345.625 z M 367.84375 350.84375 C 366.60236 350.91105 365.55438 351.73337 365.375 352.84375 C 365.168 354.11275 366.19425 355.28975 367.65625 355.46875 C 369.12025 355.64675 370.45125 354.769 370.65625 353.5 C 370.86125 352.231 369.837 351.053 368.375 350.875 C 368.19225 350.8528 368.02109 350.83405 367.84375 350.84375 z M 198.8125 354.0625 C 195.31746 353.94594 192.21563 356.15125 191.71875 359.21875 C 191.18775 362.49075 193.81975 365.50875 197.59375 365.96875 C 201.36775 366.42875 204.844 364.147 205.375 360.875 C 205.905 357.603 203.274 354.585 199.5 354.125 C 199.26412 354.0962 199.0455 354.0703 198.8125 354.0625 z M 386.90625 357.90625 C 385.90962 357.95965 385.08275 358.60837 384.9375 359.5 C 384.7735 360.518 385.576 361.482 386.75 361.625 C 387.926 361.769 389.0235 361.04925 389.1875 360.03125 C 389.3535 359.01125 388.51975 358.0805 387.34375 357.9375 C 387.197 357.9195 387.04863 357.89855 386.90625 357.90625 z M 405.6875 366.71875 C 404.93598 366.75925 404.29513 367.2655 404.1875 367.9375 C 404.0625 368.7055 404.6775 369.42325 405.5625 369.53125 C 406.4495 369.63925 407.28125 369.0805 407.40625 368.3125 C 407.53125 367.5445 406.887 366.858 406 366.75 C 405.88937 366.7365 405.79486 366.71295 405.6875 366.71875 z M 185.0625 368.03125 C 181.90912 368.20134 179.238 370.2745 178.78125 373.09375 C 178.25925 376.31475 180.8475 379.298 184.5625 379.75 C 188.2775 380.202 191.69675 377.93975 192.21875 374.71875 C 192.74075 371.49775 190.1525 368.5145 186.4375 368.0625 C 185.97312 368.0059 185.51298 368.00695 185.0625 368.03125 z M 183.4375 384.3125 C 180.41035 384.21192 177.74375 386.12437 177.3125 388.78125 C 176.8535 391.61525 179.107 394.227 182.375 394.625 C 185.644 395.024 188.666 393.05275 189.125 390.21875 C 189.585 387.38475 187.3315 384.773 184.0625 384.375 C 183.85819 384.3501 183.63931 384.3192 183.4375 384.3125 z M 188.8125 398.71875 C 186.8388 398.80375 185.13488 399.99262 184.65625 401.6875 C 184.61925 401.8155 184.5844 401.95975 184.5625 402.09375 C 184.2145 404.23975 185.93225 406.23025 188.40625 406.53125 C 190.88125 406.83325 193.18425 405.3325 193.53125 403.1875 C 193.61425 402.6785 193.5705 402.1575 193.4375 401.6875 C 193.0085 400.1755 191.5745 398.98 189.6875 398.75 C 189.39762 398.7146 189.09446 398.70655 188.8125 398.71875 z M 198.6875 410 C 197.26203 410.0773 196.05025 411.00637 195.84375 412.28125 C 195.60875 413.73825 196.7585 415.1085 198.4375 415.3125 C 200.1175 415.5175 201.66925 414.48825 201.90625 413.03125 C 202.14225 411.57425 200.9935 410.23625 199.3125 410.03125 C 199.10262 410.00575 198.89114 409.9889 198.6875 410 z M 207.9375 417.59375 C 207.18567 417.63425 206.54688 418.1405 206.4375 418.8125 C 206.3125 419.5805 206.95875 420.267 207.84375 420.375 C 208.72975 420.483 209.53125 419.9555 209.65625 419.1875 C 209.78025 418.4195 209.16725 417.70175 208.28125 417.59375 C 208.1705 417.58025 208.0449 417.58775 207.9375 417.59375 z M 181.8125 432.375 L 178.59375 432.90625 L 178.28125 433.1875 C 178.50725 436.3945 178.64775 438.5415 178.71875 441.6875 C 178.76475 443.7415 178.77025 446.2145 178.78125 449.6875 L 181.96875 449.6875 C 181.96675 448.5785 181.96875 447.46075 181.96875 446.34375 C 181.96875 444.62375 181.95675 443.1315 181.96875 441.6875 C 181.99175 438.9395 182.02675 436.3655 182.09375 432.6875 L 181.8125 432.375 z M 178.78125 449.6875 C 178.78725 451.7295 178.78125 454.12775 178.78125 456.96875 L 178.78125 457.6875 L 178.78125 465.6875 L 178.78125 472.625 L 179.09375 472.9375 L 182.0625 472.875 L 182.375 472.5625 C 182.281 470.2725 182.21225 467.9795 182.15625 465.6875 C 182.09125 463.0175 182.028 460.3575 182 457.6875 C 181.972 455.0215 181.97365 452.38575 181.96875 449.71875 L 178.78125 449.6875 z M 202.625 432.375 L 199.40625 432.9375 L 199.09375 433.3125 C 199.35675 436.2075 199.42 437.5045 199.5 441.6875 L 199.53125 441.6875 C 199.56025 443.1845 199.5851 445.063 199.625 447.5 C 199.633 448.232 199.64735 448.9555 199.65625 449.6875 C 199.68625 452.3455 199.70775 455.0065 199.71875 457.6875 C 199.72175 458.5425 199.71875 459.395 199.71875 460.25 C 199.71875 462.053 199.72275 463.8725 199.71875 465.6875 C 199.71275 468.0275 199.68425 470.38575 199.65625 472.71875 L 199.96875 473.03125 L 206.1875 472.9375 C 209.5065 472.7845 213.75 472.61075 217.375 469.34375 C 218.469 468.37775 219.45375 467.1285 220.21875 465.6875 C 221.27475 463.6995 221.9375 461.35975 221.9375 458.84375 C 221.9375 458.46475 221.902 458.0655 221.875 457.6875 C 221.652 454.6955 220.56225 451.82075 218.65625 449.71875 L 213.125 449.6875 C 215.953 450.8325 218.1905 453.5805 218.5625 457.6875 C 218.5985 458.0855 218.59375 458.5135 218.59375 458.9375 C 218.59375 461.2305 217.98575 463.6885 216.59375 465.6875 C 215.90875 466.6735 215.04675 467.54475 213.96875 468.21875 C 211.21275 469.95375 207.237 470.21875 205.5 470.21875 L 205.34375 470.21875 C 204.52675 470.21875 203.71175 470.15625 202.84375 470.15625 L 202.84375 465.6875 L 202.84375 457.6875 L 202.84375 451.75 C 203.55875 451.188 204.10725 450.71825 205.28125 450.15625 C 205.68225 449.97625 206.0605 449.8145 206.4375 449.6875 C 207.8795 449.1985 209.11675 449.09375 209.96875 449.09375 C 211.05875 449.09375 212.132 449.2825 213.125 449.6875 L 218.65625 449.6875 C 218.33825 449.3425 217.987 449.02175 217.625 448.71875 C 215.481 446.98375 213.03875 446.28125 210.84375 446.28125 C 209.82275 446.28125 207.6895 446.43525 205.1875 447.40625 C 204.1165 447.86525 203.60975 448.15775 202.84375 448.71875 C 202.80575 445.63675 202.77825 443.4965 202.78125 441.6875 C 202.78525 438.6965 202.84255 436.63025 202.9375 432.65625 L 202.625 432.375 z M 299.8125 432.375 L 296.59375 432.90625 L 296.28125 433.1875 C 296.50725 436.3945 296.6165 438.5415 296.6875 441.6875 C 296.7335 443.7415 296.77135 446.2145 296.78125 449.6875 L 299.9375 449.6875 C 299.9355 448.5785 299.9375 447.46075 299.9375 446.34375 C 299.9375 444.62375 299.95675 443.1315 299.96875 441.6875 C 299.99175 438.9395 300.02475 436.3655 300.09375 432.6875 L 299.8125 432.375 z M 296.78125 449.6875 C 296.78625 451.7295 296.78125 454.12775 296.78125 456.96875 L 296.78125 457.6875 L 296.78125 465.6875 L 296.78125 472.625 L 297.09375 472.9375 L 300.0625 472.875 L 300.34375 472.5625 C 300.24775 470.2725 300.182 467.9795 300.125 465.6875 C 300.061 463.0175 300.028 460.3575 300 457.6875 C 299.971 455.0215 299.9435 452.38575 299.9375 449.71875 L 296.78125 449.6875 z M 192.5 434.1875 L 189.21875 434.46875 L 188.8125 434.875 L 188.78125 438.0625 L 189.1875 438.46875 L 192.4375 438.15625 L 192.8125 437.75 L 192.84375 434.59375 L 192.5 434.1875 z M 363.65625 434.1875 L 360.40625 434.46875 L 359.96875 434.875 L 359.9375 438.0625 L 360.34375 438.46875 L 363.59375 438.15625 L 363.96875 437.75 L 364.03125 434.59375 L 363.65625 434.1875 z M 237.9375 446.1875 C 234.3365 446.1875 231.44925 447.4615 229.40625 449.6875 C 227.56625 451.6905 226.4175 454.47675 226.0625 457.71875 C 225.9867 458.42417 225.9375 459.16097 225.9375 459.90625 C 225.9375 461.99144 226.29313 463.95225 226.9375 465.6875 C 228.6805 470.3615 232.72125 473.5 238.78125 473.5 C 243.17325 473.5 245.4175 472.225 247.5625 471 L 247.8125 470.46875 L 248 467.5625 L 247.59375 467.3125 C 246.36875 468.3845 243.72925 470.6875 239.03125 470.6875 C 236.87925 470.6875 232.89975 469.9685 230.59375 465.6875 C 230.49375 465.4955 230.37625 465.325 230.28125 465.125 C 229.26025 462.93 229.20725 461.133 229.15625 459.5 L 248.53125 459.5 L 248.8125 459.1875 C 248.8035 458.7195 248.80345 458.23675 248.78125 457.71875 L 237.4375 457.6875 L 248.78125 457.6875 C 248.68025 455.3255 248.3215 452.5315 246.4375 450.0625 C 246.3465 449.9425 246.24825 449.83175 246.15625 449.71875 L 244.03125 449.6875 L 246.15625 449.6875 C 243.89625 446.9595 240.9775 446.1875 237.9375 446.1875 z M 279.59375 446.1875 C 276.06059 446.1875 273.02929 447.21267 270.78125 449.6875 C 270.77115 449.6986 270.76 449.70765 270.75 449.71875 C 270.22207 450.3124 269.71695 450.99347 269.28125 451.75 C 268.21925 453.568 267.7355 455.5855 267.5625 457.6875 C 267.5025 458.4185 267.5 459.16925 267.5 459.90625 C 267.5 461.96925 267.7595 463.9235 268.3125 465.6875 C 269.7555 470.2945 273.18925 473.53125 279.28125 473.53125 C 283.90525 473.53125 288.439 471.3265 290.25 465.6875 C 290.799 463.9835 291.0865 461.96675 291.0625 459.59375 C 291.0545 459.12375 291.04165 458.4635 290.96875 457.6875 C 290.75575 455.4195 290.09325 452.19075 288.03125 449.71875 L 285.65625 449.6875 L 288.03125 449.6875 C 286.33925 447.6645 283.71775 446.1875 279.59375 446.1875 z M 317.84375 446.1875 C 314.31059 446.1875 311.28027 447.21267 309.03125 449.6875 C 309.02625 449.6935 309.005 449.6815 309 449.6875 C 308.995 449.6935 309.005 449.71295 309 449.71875 C 308.47304 450.3124 307.96893 450.99347 307.53125 451.75 C 306.47025 453.568 305.9865 455.5855 305.8125 457.6875 C 305.7535 458.4185 305.75 459.16925 305.75 459.90625 C 305.75 461.96925 306.0115 463.9235 306.5625 465.6875 C 308.0055 470.2945 311.44025 473.53125 317.53125 473.53125 C 322.15625 473.53125 326.689 471.3265 328.5 465.6875 C 329.049 463.9835 329.36775 461.96675 329.34375 459.59375 C 329.33575 459.12375 329.29175 458.4635 329.21875 457.6875 C 329.00575 455.4195 328.3755 452.19075 326.3125 449.71875 L 323.9375 449.6875 L 326.3125 449.6875 C 324.6215 447.6645 321.96675 446.1875 317.84375 446.1875 z M 382.25 446.1875 C 378.348 446.1875 375.34375 447.4865 373.21875 449.6875 L 378.5 449.6875 C 379.564 449.2475 380.7825 448.96875 382.0625 448.96875 C 383.5605 448.96875 384.72025 449.29475 385.65625 449.71875 L 385.71875 449.71875 C 386.78851 450.22106 387.56412 450.89645 388.1875 451.4375 L 388.65625 451.21875 L 388.84375 449.6875 L 389 448.375 L 388.75 447.90625 C 387.422 447.14025 385.672 446.1875 382.25 446.1875 z M 373.21875 449.6875 C 371.25175 451.7245 370.05525 454.53875 369.65625 457.71875 C 369.55875 458.51103 369.5 459.32789 369.5 460.15625 C 369.5 462.27525 369.81075 464.1085 370.34375 465.6875 L 373.8125 465.6875 C 373.1245 464.2105 372.71875 462.39 372.71875 460.125 C 372.71875 459.319 372.76405 458.4815 372.875 457.6875 C 373.215 455.2615 374.1285 452.9665 375.9375 451.3125 C 376.6115 450.6885 377.483 450.14475 378.5 449.71875 L 373.21875 449.6875 z M 370.34375 465.6875 C 372.20275 471.1835 376.89725 473.53125 381.65625 473.53125 C 383.03325 473.53125 385.9825 473.39325 388.6875 471.65625 L 389.09375 471.03125 L 389.40625 468.03125 L 388.90625 467.8125 C 386.96725 469.7025 384.5685 470.78125 381.8125 470.78125 C 378.8375 470.78125 375.4935 469.35175 373.8125 465.71875 L 370.34375 465.6875 z M 403.96875 446.1875 C 400.43531 446.1875 397.37408 447.21224 395.125 449.6875 L 395.09375 449.6875 C 395.08875 449.6935 395.09875 449.71275 395.09375 449.71875 C 394.56698 450.31226 394.09181 450.9937 393.65625 451.75 C 392.59425 453.568 392.1075 455.5855 391.9375 457.6875 C 391.8765 458.4185 391.84375 459.16925 391.84375 459.90625 C 391.84375 461.96925 392.10325 463.9235 392.65625 465.6875 C 394.09725 470.2945 397.56525 473.53125 403.65625 473.53125 C 408.28125 473.53125 412.814 471.3265 414.625 465.6875 C 415.174 463.9835 415.4615 461.96675 415.4375 459.59375 C 415.4295 459.12375 415.41665 458.4635 415.34375 457.6875 C 415.13075 455.4195 414.46925 452.19075 412.40625 449.71875 L 410.03125 449.6875 L 412.40625 449.6875 C 410.71325 447.6645 408.09175 446.1875 403.96875 446.1875 z M 263.0625 446.28125 C 260.9695 446.28125 259.27425 447.6615 258.40625 448.9375 C 258.23225 449.1765 258.0785 449.4145 257.9375 449.6875 C 257.7475 450.0525 257.5835 450.465 257.4375 450.875 L 257.46875 449.6875 L 257.4375 449.6875 L 257.5 446.84375 L 257.1875 446.53125 L 254.15625 447.03125 L 253.875 447.34375 C 253.9431 448.10268 253.98167 448.89442 254.03125 449.6875 C 254.03188 449.6976 254.03062 449.70865 254.03125 449.71875 C 254.18891 452.27081 254.28262 454.97927 254.3125 457.6875 C 254.3365 459.7905 254.3125 461.92675 254.3125 463.96875 C 254.3125 464.60075 254.3155 465.1505 254.3125 465.6875 C 254.2965 468.1365 254.2403 469.824 254.15625 472.625 L 254.46875 472.9375 L 257.53125 472.875 L 257.84375 472.5625 C 257.78775 470.5565 257.692 468.1125 257.625 465.6875 C 257.571 463.7345 257.53125 461.804 257.53125 460.125 C 257.53125 459.244 257.5353 458.4315 257.5625 457.6875 C 257.6815 454.2675 258.16775 452.2365 259.59375 450.8125 C 260.07775 450.3305 260.659 449.9175 261.375 449.6875 C 261.792 449.5535 262.261 449.5 262.75 449.5 C 263.229 449.5 263.63 449.5797 264 449.71875 L 264.0625 449.71875 C 264.33993 449.8331 264.60816 449.98764 264.90625 450.15625 L 265.3125 449.84375 L 265.3125 449.6875 L 265.71875 447.15625 L 265.34375 446.78125 C 264.52775 446.47325 263.8795 446.28125 263.0625 446.28125 z M 192.34375 446.53125 L 189.28125 447.03125 L 188.96875 447.34375 C 189.01775 448.09675 189.05375 448.8765 189.09375 449.6875 C 189.21827 452.25053 189.2957 455.06833 189.34375 457.6875 C 189.40175 460.8435 189.4355 463.7405 189.4375 465.6875 L 189.4375 466.1875 C 189.4375 467.7675 189.426 469.29225 189.375 472.65625 L 189.625 472.9375 L 192.6875 472.875 L 193 472.5625 C 192.895 470.3285 192.79575 468.0165 192.71875 465.6875 C 192.63075 463.0235 192.57125 460.3365 192.53125 457.6875 C 192.50425 455.8845 192.5 454.108 192.5 452.375 C 192.5 451.346 192.50505 450.5405 192.53125 449.6875 C 192.55725 448.8535 192.60525 448.00175 192.65625 446.84375 L 192.34375 446.53125 z M 363.5 446.53125 L 360.4375 447.03125 L 360.125 447.34375 C 360.174 448.09675 360.24225 448.8765 360.28125 449.6875 C 360.40577 452.25053 360.48419 455.06833 360.53125 457.6875 C 360.59025 460.8435 360.59175 463.7405 360.59375 465.6875 C 360.59575 465.8635 360.59375 466.0295 360.59375 466.1875 C 360.59375 467.7675 360.58375 469.29225 360.53125 472.65625 L 360.8125 472.9375 L 363.875 472.875 L 364.15625 472.5625 C 364.05125 470.3285 363.98425 468.0165 363.90625 465.6875 C 363.82025 463.0235 363.7265 460.3365 363.6875 457.6875 C 363.6605 455.8845 363.65625 454.108 363.65625 452.375 C 363.65625 451.346 363.6623 450.5405 363.6875 449.6875 C 363.7125 448.8535 363.7635 448.00175 363.8125 446.84375 L 363.5 446.53125 z M 346.375 446.59375 C 342.953 446.59375 339.52675 446.58875 336.71875 448.9375 C 336.48475 449.1395 336.2165 449.3755 335.9375 449.6875 C 334.8735 450.8725 333.65625 452.885 333.65625 455.875 C 333.65625 456.542 333.72055 457.1325 333.8125 457.6875 L 337.03125 457.6875 C 336.89825 457.1505 336.8125 456.5835 336.8125 455.9375 C 336.8125 453.26925 338.15404 450.74053 340.8125 449.6875 L 340.84375 449.6875 C 341.68376 449.36385 342.67776 449.1875 343.78125 449.1875 C 344.82225 449.1875 345.715 449.3585 346.5 449.6875 C 348.947 450.7135 350.1485 453.15 350.1875 455.625 C 350.1995 456.337 350.1235 457.0185 349.9375 457.6875 C 349.2185 460.2795 347.029 462.34375 343.5 462.34375 C 340.783 462.34375 337.82425 460.97975 337.03125 457.71875 L 333.8125 457.6875 C 334.3945 461.2115 336.64325 462.648 338.40625 463.75 C 337.92625 464.607 337.60625 465.18875 337.28125 465.71875 C 336.81856 466.48148 336.37074 467.14775 335.5625 468.34375 L 335.6875 468.84375 L 337.9375 469.8125 C 336.8355 470.6235 335.17175 471.87675 334.09375 473.71875 C 333.47822 474.77786 333.0625 476.04815 333.0625 477.53125 C 333.0625 483.09625 338.6565 485.78125 343.8125 485.78125 C 349.5315 485.78125 354.84375 482.742 354.84375 477.125 C 354.84375 475.885 354.57275 474.7085 353.96875 473.6875 C 353.20475 472.3955 351.91775 471.32925 350.09375 470.53125 C 348.97075 469.96925 348.108 469.76775 344.125 468.59375 L 339.53125 467.21875 L 340.4375 465.6875 L 341.15625 464.4375 C 342.17725 464.6415 342.9155 464.8125 343.9375 464.8125 C 348.4215 464.8125 352.38275 462.0215 353.21875 457.6875 C 353.32375 457.1365 353.375 456.56775 353.375 455.96875 C 353.375 452.60875 351.752 450.6965 350.625 449.6875 C 350.365 449.4485 350.1215 449.268 349.9375 449.125 L 355.0625 449.4375 L 355.40625 449.125 L 355.625 447 L 355.40625 446.625 L 348.65625 446.625 L 346.375 446.59375 z M 237.84375 448.6875 C 238.70575 448.6875 240.30925 448.7108 241.90625 449.71875 C 241.91325 449.72275 241.9307 449.71475 241.9375 449.71875 C 242.6938 450.20508 243.45625 450.91024 244.125 451.9375 C 245.299 453.7755 245.36675 455.42625 245.46875 456.90625 L 229.375 456.90625 C 229.579 455.68125 229.92025 453.3555 231.65625 451.3125 C 232.23025 450.6425 232.9355 450.1015 233.6875 449.6875 C 234.9415 448.9995 236.37575 448.6875 237.84375 448.6875 z M 279.34375 448.8125 C 280.05175 448.8125 281.65725 448.8388 283.28125 449.71875 L 283.34375 449.71875 C 284.62851 450.43764 285.9214 451.70661 286.75 453.96875 C 287.157 455.05375 287.39525 456.3915 287.53125 457.6875 C 287.59925 458.3395 287.63925 458.99375 287.65625 459.59375 C 287.69425 461.76275 287.4715 463.8785 286.8125 465.6875 C 285.7195 468.6925 283.42275 470.84375 279.21875 470.84375 C 274.87575 470.84375 272.8055 468.3295 271.8125 465.6875 C 270.9025 463.2695 270.90625 460.72275 270.90625 459.84375 C 270.90625 459.15775 270.9301 458.4325 271 457.6875 C 271.291 454.5935 272.3245 451.26975 275.3125 449.71875 L 273.03125 449.6875 L 275.3125 449.6875 C 276.3805 449.1385 277.72275 448.8125 279.34375 448.8125 z M 317.59375 448.8125 C 318.30075 448.8125 319.90625 448.8388 321.53125 449.71875 L 321.59375 449.71875 C 322.87758 450.43764 324.17239 451.70661 325 453.96875 C 325.406 455.05375 325.64425 456.3915 325.78125 457.6875 C 325.84925 458.3395 325.88825 458.99375 325.90625 459.59375 C 325.94325 461.76275 325.7215 463.8785 325.0625 465.6875 C 323.9685 468.6925 321.707 470.84375 317.5 470.84375 C 313.158 470.84375 311.0545 468.3295 310.0625 465.6875 C 309.1525 463.2695 309.15625 460.72275 309.15625 459.84375 C 309.15625 459.15775 309.179 458.4325 309.25 457.6875 C 309.541 454.5935 310.60575 451.26975 313.59375 449.71875 L 311.3125 449.6875 L 313.59375 449.6875 C 314.66175 449.1385 315.97075 448.8125 317.59375 448.8125 z M 403.71875 448.8125 C 404.42575 448.8125 406.03325 448.8388 407.65625 449.71875 L 407.71875 449.71875 C 409.00443 450.43764 410.26417 451.70661 411.09375 453.96875 C 411.50175 455.05375 411.76925 456.3915 411.90625 457.6875 C 411.97425 458.3395 412.01525 458.99375 412.03125 459.59375 C 412.07025 461.76275 411.8465 463.8785 411.1875 465.6875 C 410.0935 468.6925 407.79875 470.84375 403.59375 470.84375 C 399.25175 470.84375 397.1815 468.3295 396.1875 465.6875 C 395.2775 463.2695 395.28125 460.72275 395.28125 459.84375 C 395.28125 459.15775 395.304 458.4325 395.375 457.6875 C 395.666 454.5935 396.6995 451.26975 399.6875 449.71875 L 397.375 449.6875 L 399.6875 449.6875 C 400.7555 449.1385 402.09575 448.8125 403.71875 448.8125 z M 340.3125 470.5625 C 342.7635 471.2775 345.7995 472.0975 347.6875 472.8125 C 348.1265 472.9925 348.834 473.2465 349.5 473.6875 C 350.539 474.3785 351.53125 475.54025 351.53125 477.53125 C 351.53125 480.13525 349.39225 483.25 344.03125 483.25 C 338.16025 483.25 336.21875 479.60725 336.21875 477.15625 C 336.21875 475.81125 336.65025 474.6625 337.28125 473.6875 C 338.16025 472.3275 339.4195 471.3055 340.3125 470.5625 z M 372.125 489.6875 L 372.25 489.6875 L 372.125 489.6875 z M 395.3125 489.6875 L 395.4375 489.6875 L 395.3125 489.6875 z "
   xlink:href="#path19"
   style="fill:#4c75b0;fill-opacity:1;stroke:none"
   id="path3807"
   inkscape:href="#path19"
   d="m 265.78125,337.71875 c -2.46822,0.13342 -4.57962,1.73162 -4.9375,3.9375 -0.409,2.521 1.62425,4.86575 4.53125,5.21875 2.908,0.355 5.591,-1.4165 6,-3.9375 0.409,-2.521 -1.62325,-4.8335 -4.53125,-5.1875 -0.3635,-0.0442 -0.7099,-0.0503 -1.0625,-0.0312 z m 22.1875,0.84375 c -2.22295,0.12015 -4.1155,1.60662 -4.4375,3.59375 -0.368,2.271 1.4445,4.3685 4.0625,4.6875 2.619,0.319 5.03825,-1.26025 5.40625,-3.53125 0.368,-2.27 -1.4435,-4.3685 -4.0625,-4.6875 -0.32738,-0.0399 -0.65119,-0.0797 -0.96875,-0.0625 z m -44.84375,1.28125 c -2.71348,0.14689 -5.04462,1.95037 -5.4375,4.375 -0.449,2.772 1.77175,5.32875 4.96875,5.71875 3.196,0.389 6.176,-1.5415 6.625,-4.3125 0.448,-2.772 -1.77175,-5.32875 -4.96875,-5.71875 -0.39963,-0.0486 -0.79986,-0.0835 -1.1875,-0.0625 z m 65.84375,0.1875 c -1.97833,0.10668 -3.65225,1.38787 -3.9375,3.15625 -0.328,2.02 1.294,3.9035 3.625,4.1875 2.33,0.284 4.4845,-1.13525 4.8125,-3.15625 0.326,-2.02 -1.295,-3.87225 -3.625,-4.15625 -0.29138,-0.0355 -0.59238,-0.0466 -0.875,-0.0312 z m 19.90625,1.875 c -1.73242,0.0934 -3.18637,1.2325 -3.4375,2.78125 -0.287,1.77 1.11525,3.40725 3.15625,3.65625 2.043,0.249 3.93175,-0.98 4.21875,-2.75 0.287,-1.77 -1.1465,-3.40725 -3.1875,-3.65625 -0.25513,-0.0311 -0.50251,-0.0446 -0.75,-0.0312 z m -109.46875,3.1875 c -2.95828,0.16018 -5.4775,2.10575 -5.90625,4.75 -0.489,3.021 1.9525,5.825 5.4375,6.25 3.485,0.424 6.6985,-1.69675 7.1875,-4.71875 0.491,-3.022 -1.92125,-5.825 -5.40625,-6.25 -0.43563,-0.053 -0.88989,-0.0541 -1.3125,-0.0312 z M 348.5,345.625 c -1.48698,0.0806 -2.75175,1.07625 -2.96875,2.40625 -0.246,1.519 0.96375,2.912 2.71875,3.125 1.752,0.214 3.379,-0.82475 3.625,-2.34375 0.248,-1.519 -0.998,-2.94225 -2.75,-3.15625 -0.219,-0.0266 -0.41257,-0.0428 -0.625,-0.0312 z m 19.34375,5.21875 c -1.24139,0.0673 -2.28937,0.88962 -2.46875,2 -0.207,1.269 0.81925,2.446 2.28125,2.625 1.464,0.178 2.795,-0.69975 3,-1.96875 0.205,-1.269 -0.81925,-2.447 -2.28125,-2.625 -0.18275,-0.0222 -0.35391,-0.041 -0.53125,-0.0312 z M 198.8125,354.0625 c -3.49504,-0.11656 -6.59687,2.08875 -7.09375,5.15625 -0.531,3.272 2.101,6.29 5.875,6.75 3.774,0.46 7.25025,-1.82175 7.78125,-5.09375 0.53,-3.272 -2.101,-6.29 -5.875,-6.75 -0.23588,-0.0288 -0.4545,-0.0547 -0.6875,-0.0625 z m 188.09375,3.84375 c -0.99663,0.0534 -1.8235,0.70212 -1.96875,1.59375 -0.164,1.018 0.6385,1.982 1.8125,2.125 1.176,0.144 2.2735,-0.57575 2.4375,-1.59375 0.166,-1.02 -0.66775,-1.95075 -1.84375,-2.09375 -0.14675,-0.018 -0.29512,-0.0389 -0.4375,-0.0312 z m 18.78125,8.8125 c -0.75152,0.0405 -1.39237,0.54675 -1.5,1.21875 -0.125,0.768 0.49,1.48575 1.375,1.59375 0.887,0.108 1.71875,-0.45075 1.84375,-1.21875 0.125,-0.768 -0.51925,-1.4545 -1.40625,-1.5625 -0.11063,-0.0135 -0.20514,-0.0371 -0.3125,-0.0312 z m -220.625,1.3125 c -3.15338,0.17009 -5.8245,2.24325 -6.28125,5.0625 -0.522,3.221 2.06625,6.20425 5.78125,6.65625 3.715,0.452 7.13425,-1.81025 7.65625,-5.03125 0.522,-3.221 -2.06625,-6.20425 -5.78125,-6.65625 -0.46438,-0.0566 -0.92452,-0.0555 -1.375,-0.0312 z m -1.625,16.28125 c -3.02715,-0.10058 -5.69375,1.81187 -6.125,4.46875 -0.459,2.834 1.7945,5.44575 5.0625,5.84375 3.269,0.399 6.291,-1.57225 6.75,-4.40625 0.46,-2.834 -1.7935,-5.44575 -5.0625,-5.84375 -0.20431,-0.0249 -0.42319,-0.0558 -0.625,-0.0625 z m 5.375,14.40625 c -1.9737,0.085 -3.67762,1.27387 -4.15625,2.96875 -0.037,0.128 -0.0719,0.27225 -0.0937,0.40625 -0.348,2.146 1.36975,4.1365 3.84375,4.4375 2.475,0.302 4.778,-1.19875 5.125,-3.34375 0.083,-0.509 0.0393,-1.03 -0.0937,-1.5 -0.429,-1.512 -1.863,-2.7075 -3.75,-2.9375 -0.28988,-0.0354 -0.59304,-0.0435 -0.875,-0.0312 z M 198.6875,410 c -1.42547,0.0773 -2.63725,1.00637 -2.84375,2.28125 -0.235,1.457 0.91475,2.82725 2.59375,3.03125 1.68,0.205 3.23175,-0.82425 3.46875,-2.28125 0.236,-1.457 -0.91275,-2.795 -2.59375,-3 -0.20988,-0.0255 -0.42136,-0.0423 -0.625,-0.0312 z m 9.25,7.59375 c -0.75183,0.0405 -1.39062,0.54675 -1.5,1.21875 -0.125,0.768 0.52125,1.4545 1.40625,1.5625 0.886,0.108 1.6875,-0.4195 1.8125,-1.1875 0.124,-0.768 -0.489,-1.48575 -1.375,-1.59375 -0.11075,-0.0135 -0.23635,-0.006 -0.34375,0 z m -26.125,14.78125 -3.21875,0.53125 -0.3125,0.28125 c 0.226,3.207 0.3665,5.354 0.4375,8.5 0.046,2.054 0.0515,4.527 0.0625,8 l 3.1875,0 c -0.002,-1.109 0,-2.22675 0,-3.34375 0,-1.72 -0.012,-3.21225 0,-4.65625 0.023,-2.748 0.058,-5.322 0.125,-9 l -0.28125,-0.3125 z m -3.03125,17.3125 c 0.006,2.042 0,4.44025 0,7.28125 l 0,0.71875 0,8 0,6.9375 0.3125,0.3125 2.96875,-0.0625 0.3125,-0.3125 c -0.094,-2.29 -0.16275,-4.583 -0.21875,-6.875 -0.065,-2.67 -0.12825,-5.33 -0.15625,-8 -0.028,-2.666 -0.0264,-5.30175 -0.0312,-7.96875 l -3.1875,-0.0312 z m 23.84375,-17.3125 -3.21875,0.5625 -0.3125,0.375 c 0.263,2.895 0.32625,4.192 0.40625,8.375 l 0.0312,0 c 0.029,1.497 0.0539,3.3755 0.0937,5.8125 0.008,0.732 0.0223,1.4555 0.0312,2.1875 0.03,2.658 0.0515,5.319 0.0625,8 0.003,0.855 0,1.7075 0,2.5625 0,1.803 0.004,3.6225 0,5.4375 -0.006,2.34 -0.0345,4.69825 -0.0625,7.03125 l 0.3125,0.3125 6.21875,-0.0937 c 3.319,-0.153 7.5625,-0.32675 11.1875,-3.59375 1.094,-0.966 2.07875,-2.21525 2.84375,-3.65625 1.056,-1.988 1.71875,-4.32775 1.71875,-6.84375 0,-0.379 -0.0355,-0.77825 -0.0625,-1.15625 -0.223,-2.992 -1.31275,-5.86675 -3.21875,-7.96875 l -5.53125,-0.0312 c 2.828,1.145 5.0655,3.893 5.4375,8 0.036,0.398 0.0312,0.826 0.0312,1.25 0,2.293 -0.608,4.751 -2,6.75 -0.685,0.986 -1.547,1.85725 -2.625,2.53125 -2.756,1.735 -6.73175,2 -8.46875,2 l -0.15625,0 c -0.817,0 -1.632,-0.0625 -2.5,-0.0625 l 0,-4.46875 0,-8 0,-5.9375 c 0.715,-0.562 1.2635,-1.03175 2.4375,-1.59375 0.401,-0.18 0.77925,-0.34175 1.15625,-0.46875 1.442,-0.489 2.67925,-0.59375 3.53125,-0.59375 1.09,0 2.16325,0.18875 3.15625,0.59375 l 5.53125,0 c -0.318,-0.345 -0.66925,-0.66575 -1.03125,-0.96875 -2.144,-1.735 -4.58625,-2.4375 -6.78125,-2.4375 -1.021,0 -3.15425,0.154 -5.65625,1.125 -1.071,0.459 -1.57775,0.7515 -2.34375,1.3125 -0.038,-3.082 -0.0655,-5.22225 -0.0625,-7.03125 0.004,-2.991 0.0613,-5.05725 0.15625,-9.03125 L 202.625,432.375 z m 97.1875,0 -3.21875,0.53125 -0.3125,0.28125 c 0.226,3.207 0.33525,5.354 0.40625,8.5 0.046,2.054 0.0838,4.527 0.0937,8 l 3.15625,0 c -0.002,-1.109 0,-2.22675 0,-3.34375 0,-1.72 0.0192,-3.21225 0.0312,-4.65625 0.023,-2.748 0.056,-5.322 0.125,-9 l -0.28125,-0.3125 z m -3.03125,17.3125 c 0.005,2.042 0,4.44025 0,7.28125 l 0,0.71875 0,8 0,6.9375 0.3125,0.3125 2.96875,-0.0625 0.28125,-0.3125 c -0.096,-2.29 -0.16175,-4.583 -0.21875,-6.875 -0.064,-2.67 -0.097,-5.33 -0.125,-8 -0.029,-2.666 -0.0565,-5.30175 -0.0625,-7.96875 l -3.15625,-0.0312 z m -104.28125,-15.5 -3.28125,0.28125 -0.40625,0.40625 -0.0312,3.1875 0.40625,0.40625 3.25,-0.3125 0.375,-0.40625 0.0312,-3.15625 L 192.5,434.1875 z m 171.15625,0 -3.25,0.28125 -0.4375,0.40625 -0.0312,3.1875 0.40625,0.40625 3.25,-0.3125 0.375,-0.40625 0.0625,-3.15625 -0.375,-0.40625 z m -125.71875,12 c -3.601,0 -6.48825,1.274 -8.53125,3.5 -1.84,2.003 -2.98875,4.78925 -3.34375,8.03125 -0.0758,0.70542 -0.125,1.44222 -0.125,2.1875 0,2.08519 0.35563,4.046 1,5.78125 1.743,4.674 5.78375,7.8125 11.84375,7.8125 4.392,0 6.63625,-1.275 8.78125,-2.5 l 0.25,-0.53125 0.1875,-2.90625 -0.40625,-0.25 c -1.225,1.072 -3.8645,3.375 -8.5625,3.375 -2.152,0 -6.1315,-0.719 -8.4375,-5 -0.1,-0.192 -0.2175,-0.3625 -0.3125,-0.5625 -1.021,-2.195 -1.074,-3.992 -1.125,-5.625 l 19.375,0 0.28125,-0.3125 c -0.009,-0.468 -0.009,-0.95075 -0.0312,-1.46875 l -11.34375,-0.0312 11.34375,0 c -0.101,-2.362 -0.45975,-5.156 -2.34375,-7.625 -0.091,-0.12 -0.18925,-0.23075 -0.28125,-0.34375 l -2.125,-0.0312 2.125,0 c -2.26,-2.728 -5.17875,-3.5 -8.21875,-3.5 z m 41.65625,0 c -3.53316,0 -6.56446,1.02517 -8.8125,3.5 -0.0101,0.0111 -0.0213,0.0202 -0.0312,0.0312 -0.52793,0.59365 -1.03305,1.27472 -1.46875,2.03125 -1.062,1.818 -1.54575,3.8355 -1.71875,5.9375 -0.06,0.731 -0.0625,1.48175 -0.0625,2.21875 0,2.063 0.2595,4.01725 0.8125,5.78125 1.443,4.607 4.87675,7.84375 10.96875,7.84375 4.624,0 9.15775,-2.20475 10.96875,-7.84375 0.549,-1.704 0.8365,-3.72075 0.8125,-6.09375 -0.008,-0.47 -0.0208,-1.13025 -0.0937,-1.90625 -0.213,-2.268 -0.8755,-5.49675 -2.9375,-7.96875 l -2.375,-0.0312 2.375,0 c -1.692,-2.023 -4.3135,-3.5 -8.4375,-3.5 z m 38.25,0 c -3.53316,0 -6.56348,1.02517 -8.8125,3.5 -0.005,0.006 -0.0263,-0.006 -0.0312,0 -0.005,0.006 0.005,0.0254 0,0.0312 -0.52696,0.59365 -1.03107,1.27472 -1.46875,2.03125 -1.061,1.818 -1.54475,3.8355 -1.71875,5.9375 -0.059,0.731 -0.0625,1.48175 -0.0625,2.21875 0,2.063 0.2615,4.01725 0.8125,5.78125 1.443,4.607 4.87775,7.84375 10.96875,7.84375 4.625,0 9.15775,-2.20475 10.96875,-7.84375 0.549,-1.704 0.86775,-3.72075 0.84375,-6.09375 -0.008,-0.47 -0.052,-1.13025 -0.125,-1.90625 -0.213,-2.268 -0.84325,-5.49675 -2.90625,-7.96875 l -2.375,-0.0312 2.375,0 c -1.691,-2.023 -4.34575,-3.5 -8.46875,-3.5 z m 64.40625,0 c -3.902,0 -6.90625,1.299 -9.03125,3.5 l 5.28125,0 c 1.064,-0.44 2.2825,-0.71875 3.5625,-0.71875 1.498,0 2.65775,0.326 3.59375,0.75 l 0.0625,0 c 1.06976,0.50231 1.84537,1.1777 2.46875,1.71875 l 0.46875,-0.21875 0.1875,-1.53125 0.15625,-1.3125 -0.25,-0.46875 c -1.328,-0.766 -3.078,-1.71875 -6.5,-1.71875 z m -9.03125,3.5 c -1.967,2.037 -3.1635,4.85125 -3.5625,8.03125 -0.0975,0.79228 -0.15625,1.60914 -0.15625,2.4375 0,2.119 0.31075,3.95225 0.84375,5.53125 l 3.46875,0 c -0.688,-1.477 -1.09375,-3.2975 -1.09375,-5.5625 0,-0.806 0.0453,-1.6435 0.15625,-2.4375 0.34,-2.426 1.2535,-4.721 3.0625,-6.375 0.674,-0.624 1.5455,-1.16775 2.5625,-1.59375 l -5.28125,-0.0312 z m -2.875,16 c 1.859,5.496 6.5535,7.84375 11.3125,7.84375 1.377,0 4.32625,-0.138 7.03125,-1.875 l 0.40625,-0.625 0.3125,-3 -0.5,-0.21875 c -1.939,1.89 -4.33775,2.96875 -7.09375,2.96875 -2.975,0 -6.319,-1.4295 -8,-5.0625 l -3.46875,-0.0312 z m 33.625,-19.5 c -3.53344,0 -6.59467,1.02474 -8.84375,3.5 l -0.0312,0 c -0.005,0.006 0.005,0.0253 0,0.0312 -0.52677,0.59351 -1.00194,1.27495 -1.4375,2.03125 -1.062,1.818 -1.54875,3.8355 -1.71875,5.9375 -0.061,0.731 -0.0937,1.48175 -0.0937,2.21875 0,2.063 0.2595,4.01725 0.8125,5.78125 1.441,4.607 4.909,7.84375 11,7.84375 4.625,0 9.15775,-2.20475 10.96875,-7.84375 0.549,-1.704 0.8365,-3.72075 0.8125,-6.09375 -0.008,-0.47 -0.0208,-1.13025 -0.0937,-1.90625 -0.213,-2.268 -0.8745,-5.49675 -2.9375,-7.96875 l -2.375,-0.0312 2.375,0 c -1.693,-2.023 -4.3145,-3.5 -8.4375,-3.5 z m -140.90625,0.0937 c -2.093,0 -3.78825,1.38025 -4.65625,2.65625 -0.174,0.239 -0.32775,0.477 -0.46875,0.75 -0.19,0.365 -0.354,0.7775 -0.5,1.1875 l 0.0312,-1.1875 -0.0312,0 0.0625,-2.84375 -0.3125,-0.3125 -3.03125,0.5 -0.28125,0.3125 c 0.0681,0.75893 0.10667,1.55067 0.15625,2.34375 6.3e-4,0.0101 -6.3e-4,0.0211 0,0.0312 0.15766,2.55206 0.25137,5.26052 0.28125,7.96875 0.024,2.103 0,4.23925 0,6.28125 0,0.632 0.003,1.18175 0,1.71875 -0.016,2.449 -0.0722,4.1365 -0.15625,6.9375 l 0.3125,0.3125 3.0625,-0.0625 0.3125,-0.3125 c -0.056,-2.006 -0.15175,-4.45 -0.21875,-6.875 -0.054,-1.953 -0.0937,-3.8835 -0.0937,-5.5625 0,-0.881 0.004,-1.6935 0.0312,-2.4375 0.119,-3.42 0.60525,-5.451 2.03125,-6.875 0.484,-0.482 1.06525,-0.895 1.78125,-1.125 0.417,-0.134 0.886,-0.1875 1.375,-0.1875 0.479,0 0.88,0.0797 1.25,0.21875 l 0.0625,0 c 0.27743,0.11435 0.54566,0.26889 0.84375,0.4375 l 0.40625,-0.3125 0,-0.15625 0.40625,-2.53125 -0.375,-0.375 c -0.816,-0.308 -1.46425,-0.5 -2.28125,-0.5 z m -70.71875,0.25 -3.0625,0.5 -0.3125,0.3125 c 0.049,0.753 0.085,1.53275 0.125,2.34375 0.12452,2.56303 0.20195,5.38083 0.25,8 0.058,3.156 0.0917,6.053 0.0937,8 l 0,0.5 c 0,1.58 -0.0115,3.10475 -0.0625,6.46875 l 0.25,0.28125 3.0625,-0.0625 0.3125,-0.3125 c -0.105,-2.234 -0.20425,-4.546 -0.28125,-6.875 -0.088,-2.664 -0.1475,-5.351 -0.1875,-8 -0.027,-1.803 -0.0312,-3.5795 -0.0312,-5.3125 0,-1.029 0.005,-1.8345 0.0312,-2.6875 0.026,-0.834 0.074,-1.68575 0.125,-2.84375 l -0.3125,-0.3125 z m 171.15625,0 -3.0625,0.5 -0.3125,0.3125 c 0.049,0.753 0.11725,1.53275 0.15625,2.34375 0.12452,2.56303 0.20294,5.38083 0.25,8 0.059,3.156 0.0605,6.053 0.0625,8 0.002,0.176 0,0.342 0,0.5 0,1.58 -0.01,3.10475 -0.0625,6.46875 l 0.28125,0.28125 3.0625,-0.0625 0.28125,-0.3125 c -0.105,-2.234 -0.172,-4.546 -0.25,-6.875 -0.086,-2.664 -0.17975,-5.351 -0.21875,-8 -0.027,-1.803 -0.0312,-3.5795 -0.0312,-5.3125 0,-1.029 0.006,-1.8345 0.0312,-2.6875 0.025,-0.834 0.076,-1.68575 0.125,-2.84375 l -0.3125,-0.3125 z m -17.125,0.0625 c -3.422,0 -6.84825,-0.005 -9.65625,2.34375 -0.234,0.202 -0.50225,0.438 -0.78125,0.75 -1.064,1.185 -2.28125,3.1975 -2.28125,6.1875 0,0.667 0.0643,1.2575 0.15625,1.8125 l 3.21875,0 c -0.133,-0.537 -0.21875,-1.104 -0.21875,-1.75 0,-2.66825 1.34154,-5.19697 4,-6.25 l 0.0312,0 c 0.84001,-0.32365 1.83401,-0.5 2.9375,-0.5 1.041,0 1.93375,0.171 2.71875,0.5 2.447,1.026 3.6485,3.4625 3.6875,5.9375 0.012,0.712 -0.064,1.3935 -0.25,2.0625 -0.719,2.592 -2.9085,4.65625 -6.4375,4.65625 -2.717,0 -5.67575,-1.364 -6.46875,-4.625 l -3.21875,-0.0312 c 0.582,3.524 2.83075,4.9605 4.59375,6.0625 -0.48,0.857 -0.8,1.43875 -1.125,1.96875 -0.46269,0.76273 -0.91051,1.429 -1.71875,2.625 l 0.125,0.5 2.25,0.96875 c -1.102,0.811 -2.76575,2.06425 -3.84375,3.90625 -0.61553,1.05911 -1.03125,2.3294 -1.03125,3.8125 0,5.565 5.594,8.25 10.75,8.25 5.719,0 11.03125,-3.03925 11.03125,-8.65625 0,-1.24 -0.271,-2.4165 -0.875,-3.4375 -0.764,-1.292 -2.051,-2.35825 -3.875,-3.15625 -1.123,-0.562 -1.98575,-0.7635 -5.96875,-1.9375 l -4.59375,-1.375 0.90625,-1.53125 0.71875,-1.25 c 1.021,0.204 1.75925,0.375 2.78125,0.375 4.484,0 8.44525,-2.791 9.28125,-7.125 0.105,-0.551 0.15625,-1.11975 0.15625,-1.71875 0,-3.36 -1.623,-5.27225 -2.75,-6.28125 -0.26,-0.239 -0.5035,-0.4195 -0.6875,-0.5625 l 5.125,0.3125 0.34375,-0.3125 0.21875,-2.125 -0.21875,-0.375 -6.75,0 -2.28125,-0.0312 z m -108.53125,2.09375 c 0.862,0 2.4655,0.0233 4.0625,1.03125 0.007,0.004 0.0245,-0.004 0.0312,0 0.7563,0.48633 1.51875,1.19149 2.1875,2.21875 1.174,1.838 1.24175,3.48875 1.34375,4.96875 l -16.09375,0 c 0.204,-1.225 0.54525,-3.55075 2.28125,-5.59375 0.574,-0.67 1.27925,-1.211 2.03125,-1.625 1.254,-0.688 2.68825,-1 4.15625,-1 z m 41.5,0.125 c 0.708,0 2.3135,0.0263 3.9375,0.90625 l 0.0625,0 c 1.28476,0.71889 2.57765,1.98786 3.40625,4.25 0.407,1.085 0.64525,2.42275 0.78125,3.71875 0.068,0.652 0.108,1.30625 0.125,1.90625 0.038,2.169 -0.18475,4.28475 -0.84375,6.09375 -1.093,3.005 -3.38975,5.15625 -7.59375,5.15625 -4.343,0 -6.41325,-2.51425 -7.40625,-5.15625 -0.91,-2.418 -0.90625,-4.96475 -0.90625,-5.84375 0,-0.686 0.0238,-1.41125 0.0937,-2.15625 0.291,-3.094 1.3245,-6.41775 4.3125,-7.96875 l -2.28125,-0.0312 2.28125,0 c 1.068,-0.549 2.41025,-0.875 4.03125,-0.875 z m 38.25,0 c 0.707,0 2.3125,0.0263 3.9375,0.90625 l 0.0625,0 c 1.28383,0.71889 2.57864,1.98786 3.40625,4.25 0.406,1.085 0.64425,2.42275 0.78125,3.71875 0.068,0.652 0.107,1.30625 0.125,1.90625 0.037,2.169 -0.18475,4.28475 -0.84375,6.09375 -1.094,3.005 -3.3555,5.15625 -7.5625,5.15625 -4.342,0 -6.4455,-2.51425 -7.4375,-5.15625 -0.91,-2.418 -0.90625,-4.96475 -0.90625,-5.84375 0,-0.686 0.0227,-1.41125 0.0937,-2.15625 0.291,-3.094 1.35575,-6.41775 4.34375,-7.96875 l -2.28125,-0.0312 2.28125,0 c 1.068,-0.549 2.377,-0.875 4,-0.875 z m 86.125,0 c 0.707,0 2.3145,0.0263 3.9375,0.90625 l 0.0625,0 c 1.28568,0.71889 2.54542,1.98786 3.375,4.25 0.408,1.085 0.6755,2.42275 0.8125,3.71875 0.068,0.652 0.109,1.30625 0.125,1.90625 0.039,2.169 -0.18475,4.28475 -0.84375,6.09375 -1.094,3.005 -3.38875,5.15625 -7.59375,5.15625 -4.342,0 -6.41225,-2.51425 -7.40625,-5.15625 -0.91,-2.418 -0.90625,-4.96475 -0.90625,-5.84375 0,-0.686 0.0227,-1.41125 0.0937,-2.15625 0.291,-3.094 1.3245,-6.41775 4.3125,-7.96875 l -2.3125,-0.0312 2.3125,0 c 1.068,-0.549 2.40825,-0.875 4.03125,-0.875 z m -63.40625,21.75 c 2.451,0.715 5.487,1.535 7.375,2.25 0.439,0.18 1.1465,0.434 1.8125,0.875 1.039,0.691 2.03125,1.85275 2.03125,3.84375 0,2.604 -2.139,5.71875 -7.5,5.71875 -5.871,0 -7.8125,-3.64275 -7.8125,-6.09375 0,-1.345 0.4315,-2.49375 1.0625,-3.46875 0.879,-1.36 2.13825,-2.382 3.03125,-3.125 z m 31.8125,19.125 0.125,0 -0.125,0 z m 23.1875,0 0.125,0 -0.125,0 z" /><path
   style="fill:#4c75b0;fill-opacity:1;stroke:none"
   d="m 265.78124,337.71875 c -2.46822,0.13342 -4.57962,1.73162 -4.9375,3.9375 -0.409,2.521 1.62425,4.86575 4.53125,5.21875 2.908,0.355 5.591,-1.4165 6,-3.9375 0.409,-2.521 -1.62325,-4.8335 -4.53125,-5.1875 -0.3635,-0.0442 -0.7099,-0.0503 -1.0625,-0.0312 z m 22.1875,0.84375 c -2.22295,0.12015 -4.1155,1.60662 -4.4375,3.59375 -0.368,2.271 1.4445,4.3685 4.0625,4.6875 2.619,0.319 5.03825,-1.26025 5.40625,-3.53125 0.368,-2.27 -1.4435,-4.3685 -4.0625,-4.6875 -0.32738,-0.0399 -0.65119,-0.0797 -0.96875,-0.0625 z m -44.84375,1.28125 c -2.71348,0.14689 -5.04462,1.95037 -5.4375,4.375 -0.449,2.772 1.77175,5.32875 4.96875,5.71875 3.196,0.389 6.176,-1.5415 6.625,-4.3125 0.448,-2.772 -1.77175,-5.32875 -4.96875,-5.71875 -0.39963,-0.0486 -0.79986,-0.0835 -1.1875,-0.0625 z m 65.84375,0.1875 c -1.97833,0.10668 -3.65225,1.38787 -3.9375,3.15625 -0.328,2.02 1.294,3.9035 3.625,4.1875 2.33,0.284 4.4845,-1.13525 4.8125,-3.15625 0.326,-2.02 -1.295,-3.87225 -3.625,-4.15625 -0.29138,-0.0355 -0.59238,-0.0465 -0.875,-0.0312 z m 19.90625,1.875 c -1.73242,0.0934 -3.18637,1.2325 -3.4375,2.78125 -0.287,1.77 1.11525,3.40725 3.15625,3.65625 2.043,0.249 3.93175,-0.98 4.21875,-2.75 0.287,-1.77 -1.1465,-3.40725 -3.1875,-3.65625 -0.25513,-0.0311 -0.50251,-0.0446 -0.75,-0.0312 z m -109.46875,3.1875 c -2.95828,0.16018 -5.4775,2.10575 -5.90625,4.75 -0.489,3.021 1.9525,5.825 5.4375,6.25 3.485,0.424 6.6985,-1.69675 7.1875,-4.71875 0.491,-3.022 -1.92125,-5.825 -5.40625,-6.25 -0.43563,-0.053 -0.88989,-0.0541 -1.3125,-0.0312 z m 129.09375,0.53125 c -1.48698,0.0806 -2.75175,1.07625 -2.96875,2.40625 -0.246,1.519 0.96375,2.912 2.71875,3.125 1.752,0.214 3.379,-0.82475 3.625,-2.34375 0.248,-1.519 -0.998,-2.94225 -2.75,-3.15625 -0.219,-0.0266 -0.41257,-0.0428 -0.625,-0.0312 z m 19.34375,5.21875 c -1.24139,0.0673 -2.28937,0.88962 -2.46875,2 -0.207,1.269 0.81925,2.446 2.28125,2.625 1.464,0.178 2.795,-0.69975 3,-1.96875 0.205,-1.269 -0.81925,-2.447 -2.28125,-2.625 -0.18275,-0.0222 -0.35391,-0.0409 -0.53125,-0.0312 z m -169.03125,3.21875 c -3.49504,-0.11656 -6.59687,2.08875 -7.09375,5.15625 -0.531,3.272 2.101,6.29 5.875,6.75 3.774,0.46 7.25025,-1.82175 7.78125,-5.09375 0.53,-3.272 -2.101,-6.29 -5.875,-6.75 -0.23588,-0.0288 -0.4545,-0.0547 -0.6875,-0.0625 z m 188.09375,3.84375 c -0.99663,0.0534 -1.8235,0.70212 -1.96875,1.59375 -0.164,1.018 0.6385,1.982 1.8125,2.125 1.176,0.144 2.2735,-0.57575 2.4375,-1.59375 0.166,-1.02 -0.66775,-1.95075 -1.84375,-2.09375 -0.14675,-0.018 -0.29512,-0.0389 -0.4375,-0.0312 z m 18.78125,8.8125 c -0.75152,0.0405 -1.39237,0.54675 -1.5,1.21875 -0.125,0.768 0.49,1.48575 1.375,1.59375 0.887,0.108 1.71875,-0.45075 1.84375,-1.21875 0.125,-0.768 -0.51925,-1.4545 -1.40625,-1.5625 -0.11063,-0.0135 -0.20514,-0.037 -0.3125,-0.0312 z m -220.625,1.3125 c -3.15338,0.17009 -5.8245,2.24325 -6.28125,5.0625 -0.522,3.221 2.06625,6.20425 5.78125,6.65625 3.715,0.452 7.13425,-1.81025 7.65625,-5.03125 0.522,-3.221 -2.06625,-6.20425 -5.78125,-6.65625 -0.46438,-0.0566 -0.92452,-0.0555 -1.375,-0.0312 z m -1.625,16.28125 c -3.02715,-0.10058 -5.69375,1.81187 -6.125,4.46875 -0.459,2.834 1.7945,5.44575 5.0625,5.84375 3.269,0.399 6.291,-1.57225 6.75,-4.40625 0.46,-2.834 -1.7935,-5.44575 -5.0625,-5.84375 -0.20431,-0.0249 -0.42319,-0.0558 -0.625,-0.0625 z m 5.375,14.40625 c -1.9737,0.085 -3.67762,1.27387 -4.15625,2.96875 -0.037,0.128 -0.0718,0.27225 -0.0937,0.40625 -0.348,2.146 1.36975,4.1365 3.84375,4.4375 2.475,0.302 4.778,-1.19875 5.125,-3.34375 0.083,-0.509 0.0393,-1.03 -0.0937,-1.5 -0.429,-1.512 -1.863,-2.7075 -3.75,-2.9375 -0.28988,-0.0354 -0.59304,-0.0434 -0.875,-0.0312 z M 198.68749,410 c -1.42547,0.0773 -2.63725,1.00637 -2.84375,2.28125 -0.235,1.457 0.91475,2.82725 2.59375,3.03125 1.68,0.205 3.23175,-0.82425 3.46875,-2.28125 0.236,-1.457 -0.91275,-2.795 -2.59375,-3 -0.20988,-0.0255 -0.42136,-0.0423 -0.625,-0.0312 z m 9.25,7.59375 c -0.75183,0.0405 -1.39062,0.54675 -1.5,1.21875 -0.125,0.768 0.52125,1.4545 1.40625,1.5625 0.886,0.108 1.6875,-0.4195 1.8125,-1.1875 0.124,-0.768 -0.489,-1.48575 -1.375,-1.59375 -0.11075,-0.0135 -0.23635,-0.006 -0.34375,0 z m -26.125,14.78125 -3.21875,0.53125 -0.3125,0.28125 c 0.226,3.207 0.3665,5.354 0.4375,8.5 0.046,2.054 0.0515,4.527 0.0625,8 l 3.1875,0 c -0.002,-1.109 0,-2.22675 0,-3.34375 0,-1.72 -0.012,-3.21225 0,-4.65625 0.023,-2.748 0.058,-5.322 0.125,-9 l -0.28125,-0.3125 z m -3.03125,17.3125 c 0.006,2.042 0,4.44025 0,7.28125 l 0,0.71875 0,8 0,6.9375 0.3125,0.3125 2.96875,-0.0625 0.3125,-0.3125 c -0.094,-2.29 -0.16275,-4.583 -0.21875,-6.875 -0.065,-2.67 -0.12825,-5.33 -0.15625,-8 -0.028,-2.666 -0.0263,-5.30175 -0.0312,-7.96875 l -3.1875,-0.0312 z m 23.84375,-17.3125 -3.21875,0.5625 -0.3125,0.375 c 0.263,2.895 0.32625,4.192 0.40625,8.375 l 0.0312,0 c 0.029,1.497 0.0538,3.3755 0.0937,5.8125 0.008,0.732 0.0223,1.4555 0.0312,2.1875 0.03,2.658 0.0515,5.319 0.0625,8 0.003,0.855 0,1.7075 0,2.5625 0,1.803 0.004,3.6225 0,5.4375 -0.006,2.34 -0.0345,4.69825 -0.0625,7.03125 l 0.3125,0.3125 6.21875,-0.0937 c 3.319,-0.153 7.5625,-0.32675 11.1875,-3.59375 1.094,-0.966 2.07875,-2.21525 2.84375,-3.65625 1.056,-1.988 1.71875,-4.32775 1.71875,-6.84375 0,-0.379 -0.0355,-0.77825 -0.0625,-1.15625 -0.223,-2.992 -1.31275,-5.86675 -3.21875,-7.96875 l -5.53125,-0.0312 c 2.828,1.145 5.0655,3.893 5.4375,8 0.036,0.398 0.0312,0.826 0.0312,1.25 0,2.293 -0.608,4.751 -2,6.75 -0.685,0.986 -1.547,1.85725 -2.625,2.53125 -2.756,1.735 -6.73175,2 -8.46875,2 l -0.15625,0 c -0.817,0 -1.632,-0.0625 -2.5,-0.0625 l 0,-4.46875 0,-8 0,-5.9375 c 0.715,-0.562 1.2635,-1.03175 2.4375,-1.59375 0.401,-0.18 0.77925,-0.34175 1.15625,-0.46875 1.442,-0.489 2.67925,-0.59375 3.53125,-0.59375 1.09,0 2.16325,0.18875 3.15625,0.59375 l 5.53125,0 c -0.318,-0.345 -0.66925,-0.66575 -1.03125,-0.96875 -2.144,-1.735 -4.58625,-2.4375 -6.78125,-2.4375 -1.021,0 -3.15425,0.154 -5.65625,1.125 -1.071,0.459 -1.57775,0.7515 -2.34375,1.3125 -0.038,-3.082 -0.0655,-5.22225 -0.0625,-7.03125 0.004,-2.991 0.0613,-5.05725 0.15625,-9.03125 l -0.3123,-0.28135 z m 97.1875,0 -3.21875,0.53125 -0.3125,0.28125 c 0.226,3.207 0.33525,5.354 0.40625,8.5 0.046,2.054 0.0838,4.527 0.0937,8 l 3.15625,0 c -0.002,-1.109 0,-2.22675 0,-3.34375 0,-1.72 0.0192,-3.21225 0.0312,-4.65625 0.023,-2.748 0.056,-5.322 0.125,-9 l -0.28125,-0.3125 z m -3.03125,17.3125 c 0.005,2.042 0,4.44025 0,7.28125 l 0,0.71875 0,8 0,6.9375 0.3125,0.3125 2.96875,-0.0625 0.28125,-0.3125 c -0.096,-2.29 -0.16175,-4.583 -0.21875,-6.875 -0.064,-2.67 -0.097,-5.33 -0.125,-8 -0.029,-2.666 -0.0565,-5.30175 -0.0625,-7.96875 l -3.15625,-0.0312 z m -104.28125,-15.5 -3.28125,0.28125 -0.40625,0.40625 -0.0312,3.1875 0.40625,0.40625 3.25,-0.3125 0.375,-0.40625 0.0312,-3.15625 -0.34375,-0.40625 z m 171.15625,0 -3.25,0.28125 -0.4375,0.40625 -0.0312,3.1875 0.40625,0.40625 3.25,-0.3125 0.375,-0.40625 0.0625,-3.15625 -0.375,-0.40625 z m -125.71875,12 c -3.601,0 -6.48825,1.274 -8.53125,3.5 -1.84,2.003 -2.98875,4.78925 -3.34375,8.03125 -0.0758,0.70542 -0.125,1.44222 -0.125,2.1875 0,2.08519 0.35563,4.046 1,5.78125 1.743,4.674 5.78375,7.8125 11.84375,7.8125 4.392,0 6.63625,-1.275 8.78125,-2.5 l 0.25,-0.53125 0.1875,-2.90625 -0.40625,-0.25 c -1.225,1.072 -3.8645,3.375 -8.5625,3.375 -2.152,0 -6.1315,-0.719 -8.4375,-5 -0.1,-0.192 -0.2175,-0.3625 -0.3125,-0.5625 -1.021,-2.195 -1.074,-3.992 -1.125,-5.625 l 19.375,0 0.28125,-0.3125 c -0.009,-0.468 -0.009,-0.95075 -0.0312,-1.46875 l -11.34375,-0.0312 11.34375,0 c -0.101,-2.362 -0.45975,-5.156 -2.34375,-7.625 -0.091,-0.12 -0.18925,-0.23075 -0.28125,-0.34375 l -2.125,-0.0312 2.125,0 c -2.26,-2.728 -5.17875,-3.5 -8.21875,-3.5 z m 41.65625,0 c -3.53316,0 -6.56446,1.02517 -8.8125,3.5 -0.0101,0.0111 -0.0212,0.0201 -0.0312,0.0312 -0.52793,0.59365 -1.03305,1.27472 -1.46875,2.03125 -1.062,1.818 -1.54575,3.8355 -1.71875,5.9375 -0.06,0.731 -0.0625,1.48175 -0.0625,2.21875 0,2.063 0.2595,4.01725 0.8125,5.78125 1.443,4.607 4.87675,7.84375 10.96875,7.84375 4.624,0 9.15775,-2.20475 10.96875,-7.84375 0.549,-1.704 0.8365,-3.72075 0.8125,-6.09375 -0.008,-0.47 -0.0208,-1.13025 -0.0937,-1.90625 -0.213,-2.268 -0.8755,-5.49675 -2.9375,-7.96875 l -2.375,-0.0312 2.375,0 c -1.692,-2.023 -4.3135,-3.5 -8.4375,-3.5 z m 38.25,0 c -3.53316,0 -6.56348,1.02517 -8.8125,3.5 -0.005,0.006 -0.0262,-0.006 -0.0312,0 -0.005,0.006 0.005,0.0254 0,0.0312 -0.52696,0.59365 -1.03107,1.27472 -1.46875,2.03125 -1.061,1.818 -1.54475,3.8355 -1.71875,5.9375 -0.059,0.731 -0.0625,1.48175 -0.0625,2.21875 0,2.063 0.2615,4.01725 0.8125,5.78125 1.443,4.607 4.87775,7.84375 10.96875,7.84375 4.625,0 9.15775,-2.20475 10.96875,-7.84375 0.549,-1.704 0.86775,-3.72075 0.84375,-6.09375 -0.008,-0.47 -0.052,-1.13025 -0.125,-1.90625 -0.213,-2.268 -0.84325,-5.49675 -2.90625,-7.96875 l -2.375,-0.0312 2.375,0 c -1.691,-2.023 -4.34575,-3.5 -8.46875,-3.5 z m 64.40625,0 c -3.902,0 -6.90625,1.299 -9.03125,3.5 l 5.28125,0 c 1.064,-0.44 2.2825,-0.71875 3.5625,-0.71875 1.498,0 2.65775,0.326 3.59375,0.75 l 0.0625,0 c 1.06976,0.50231 1.84537,1.1777 2.46875,1.71875 l 0.46875,-0.21875 0.1875,-1.53125 0.15625,-1.3125 -0.25,-0.46875 c -1.328,-0.766 -3.078,-1.71875 -6.5,-1.71875 z m -9.03125,3.5 c -1.967,2.037 -3.1635,4.85125 -3.5625,8.03125 -0.0975,0.79228 -0.15625,1.60914 -0.15625,2.4375 0,2.119 0.31075,3.95225 0.84375,5.53125 l 3.46875,0 c -0.688,-1.477 -1.09375,-3.2975 -1.09375,-5.5625 0,-0.806 0.0453,-1.6435 0.15625,-2.4375 0.34,-2.426 1.2535,-4.721 3.0625,-6.375 0.674,-0.624 1.5455,-1.16775 2.5625,-1.59375 l -5.28125,-0.0312 z m -2.875,16 c 1.859,5.496 6.5535,7.84375 11.3125,7.84375 1.377,0 4.32625,-0.138 7.03125,-1.875 l 0.40625,-0.625 0.3125,-3 -0.5,-0.21875 c -1.939,1.89 -4.33775,2.96875 -7.09375,2.96875 -2.975,0 -6.319,-1.4295 -8,-5.0625 l -3.46875,-0.0312 z m 33.625,-19.5 c -3.53344,0 -6.59467,1.02474 -8.84375,3.5 l -0.0312,0 c -0.005,0.006 0.005,0.0252 0,0.0312 -0.52677,0.59351 -1.00194,1.27495 -1.4375,2.03125 -1.062,1.818 -1.54875,3.8355 -1.71875,5.9375 -0.061,0.731 -0.0937,1.48175 -0.0937,2.21875 0,2.063 0.2595,4.01725 0.8125,5.78125 1.441,4.607 4.909,7.84375 11,7.84375 4.625,0 9.15775,-2.20475 10.96875,-7.84375 0.549,-1.704 0.8365,-3.72075 0.8125,-6.09375 -0.008,-0.47 -0.0208,-1.13025 -0.0937,-1.90625 -0.213,-2.268 -0.8745,-5.49675 -2.9375,-7.96875 l -2.375,-0.0312 2.375,0 c -1.693,-2.023 -4.3145,-3.5 -8.4375,-3.5 z m -140.90625,0.0937 c -2.093,0 -3.78825,1.38025 -4.65625,2.65625 -0.174,0.239 -0.32775,0.477 -0.46875,0.75 -0.19,0.365 -0.354,0.7775 -0.5,1.1875 l 0.0312,-1.1875 -0.0312,0 0.0625,-2.84375 -0.3125,-0.3125 -3.03125,0.5 -0.28125,0.3125 c 0.0681,0.75893 0.10667,1.55067 0.15625,2.34375 6.3e-4,0.0101 -6.3e-4,0.0211 0,0.0312 0.15766,2.55206 0.25137,5.26052 0.28125,7.96875 0.024,2.103 0,4.23925 0,6.28125 0,0.632 0.003,1.18175 0,1.71875 -0.016,2.449 -0.0722,4.1365 -0.15625,6.9375 l 0.3125,0.3125 3.0625,-0.0625 0.3125,-0.3125 c -0.056,-2.006 -0.15175,-4.45 -0.21875,-6.875 -0.054,-1.953 -0.0937,-3.8835 -0.0937,-5.5625 0,-0.881 0.004,-1.6935 0.0312,-2.4375 0.119,-3.42 0.60525,-5.451 2.03125,-6.875 0.484,-0.482 1.06525,-0.895 1.78125,-1.125 0.417,-0.134 0.886,-0.1875 1.375,-0.1875 0.479,0 0.88,0.0797 1.25,0.21875 l 0.0625,0 c 0.27743,0.11435 0.54566,0.26889 0.84375,0.4375 l 0.40625,-0.3125 0,-0.15625 0.40625,-2.53125 -0.375,-0.375 c -0.816,-0.308 -1.46425,-0.5 -2.28125,-0.5 z m -70.71875,0.25 -3.0625,0.5 -0.3125,0.3125 c 0.049,0.753 0.085,1.53275 0.125,2.34375 0.12452,2.56303 0.20195,5.38083 0.25,8 0.058,3.156 0.0917,6.053 0.0937,8 l 0,0.5 c 0,1.58 -0.0115,3.10475 -0.0625,6.46875 l 0.25,0.28125 3.0625,-0.0625 0.3125,-0.3125 c -0.105,-2.234 -0.20425,-4.546 -0.28125,-6.875 -0.088,-2.664 -0.1475,-5.351 -0.1875,-8 -0.027,-1.803 -0.0312,-3.5795 -0.0312,-5.3125 0,-1.029 0.005,-1.8345 0.0312,-2.6875 0.026,-0.834 0.074,-1.68575 0.125,-2.84375 l -0.3125,-0.3125 z m 171.15625,0 -3.0625,0.5 -0.3125,0.3125 c 0.049,0.753 0.11725,1.53275 0.15625,2.34375 0.12452,2.56303 0.20294,5.38083 0.25,8 0.059,3.156 0.0605,6.053 0.0625,8 0.002,0.176 0,0.342 0,0.5 0,1.58 -0.01,3.10475 -0.0625,6.46875 l 0.28125,0.28125 3.0625,-0.0625 0.28125,-0.3125 c -0.105,-2.234 -0.172,-4.546 -0.25,-6.875 -0.086,-2.664 -0.17975,-5.351 -0.21875,-8 -0.027,-1.803 -0.0312,-3.5795 -0.0312,-5.3125 0,-1.029 0.006,-1.8345 0.0312,-2.6875 0.025,-0.834 0.076,-1.68575 0.125,-2.84375 l -0.3125,-0.3125 z m -17.125,0.0625 c -3.422,0 -6.84825,-0.005 -9.65625,2.34375 -0.234,0.202 -0.50225,0.438 -0.78125,0.75 -1.064,1.185 -2.28125,3.1975 -2.28125,6.1875 0,0.667 0.0643,1.2575 0.15625,1.8125 l 3.21875,0 c -0.133,-0.537 -0.21875,-1.104 -0.21875,-1.75 0,-2.66825 1.34154,-5.19697 4,-6.25 l 0.0312,0 c 0.84001,-0.32365 1.83401,-0.5 2.9375,-0.5 1.041,0 1.93375,0.171 2.71875,0.5 2.447,1.026 3.6485,3.4625 3.6875,5.9375 0.012,0.712 -0.064,1.3935 -0.25,2.0625 -0.719,2.592 -2.9085,4.65625 -6.4375,4.65625 -2.717,0 -5.67575,-1.364 -6.46875,-4.625 l -3.21875,-0.0312 c 0.582,3.524 2.83075,4.9605 4.59375,6.0625 -0.48,0.857 -0.8,1.43875 -1.125,1.96875 -0.46269,0.76273 -0.91051,1.429 -1.71875,2.625 l 0.125,0.5 2.25,0.96875 c -1.102,0.811 -2.76575,2.06425 -3.84375,3.90625 -0.61553,1.05911 -1.03125,2.3294 -1.03125,3.8125 0,5.565 5.594,8.25 10.75,8.25 5.719,0 11.03125,-3.03925 11.03125,-8.65625 0,-1.24 -0.271,-2.4165 -0.875,-3.4375 -0.764,-1.292 -2.051,-2.35825 -3.875,-3.15625 -1.123,-0.562 -1.98575,-0.7635 -5.96875,-1.9375 l -4.59375,-1.375 0.90625,-1.53125 0.71875,-1.25 c 1.021,0.204 1.75925,0.375 2.78125,0.375 4.484,0 8.44525,-2.791 9.28125,-7.125 0.105,-0.551 0.15625,-1.11975 0.15625,-1.71875 0,-3.36 -1.623,-5.27225 -2.75,-6.28125 -0.26,-0.239 -0.5035,-0.4195 -0.6875,-0.5625 l 5.125,0.3125 0.34375,-0.3125 0.21875,-2.125 -0.21875,-0.375 -6.75,0 -2.28125,-0.0312 z m -108.53125,2.09375 c 0.862,0 2.4655,0.0233 4.0625,1.03125 0.007,0.004 0.0244,-0.004 0.0312,0 0.7563,0.48633 1.51875,1.19149 2.1875,2.21875 1.174,1.838 1.24175,3.48875 1.34375,4.96875 l -16.09375,0 c 0.204,-1.225 0.54525,-3.55075 2.28125,-5.59375 0.574,-0.67 1.27925,-1.211 2.03125,-1.625 1.254,-0.688 2.68825,-1 4.15625,-1 z m 41.5,0.125 c 0.708,0 2.3135,0.0263 3.9375,0.90625 l 0.0625,0 c 1.28476,0.71889 2.57765,1.98786 3.40625,4.25 0.407,1.085 0.64525,2.42275 0.78125,3.71875 0.068,0.652 0.108,1.30625 0.125,1.90625 0.038,2.169 -0.18475,4.28475 -0.84375,6.09375 -1.093,3.005 -3.38975,5.15625 -7.59375,5.15625 -4.343,0 -6.41325,-2.51425 -7.40625,-5.15625 -0.91,-2.418 -0.90625,-4.96475 -0.90625,-5.84375 0,-0.686 0.0238,-1.41125 0.0937,-2.15625 0.291,-3.094 1.3245,-6.41775 4.3125,-7.96875 l -2.28125,-0.0312 2.28125,0 c 1.068,-0.549 2.41025,-0.875 4.03125,-0.875 z m 38.25,0 c 0.707,0 2.3125,0.0263 3.9375,0.90625 l 0.0625,0 c 1.28383,0.71889 2.57864,1.98786 3.40625,4.25 0.406,1.085 0.64425,2.42275 0.78125,3.71875 0.068,0.652 0.107,1.30625 0.125,1.90625 0.037,2.169 -0.18475,4.28475 -0.84375,6.09375 -1.094,3.005 -3.3555,5.15625 -7.5625,5.15625 -4.342,0 -6.4455,-2.51425 -7.4375,-5.15625 -0.91,-2.418 -0.90625,-4.96475 -0.90625,-5.84375 0,-0.686 0.0227,-1.41125 0.0937,-2.15625 0.291,-3.094 1.35575,-6.41775 4.34375,-7.96875 l -2.28125,-0.0312 2.28125,0 c 1.068,-0.549 2.377,-0.875 4,-0.875 z m 86.125,0 c 0.707,0 2.3145,0.0263 3.9375,0.90625 l 0.0625,0 c 1.28568,0.71889 2.54542,1.98786 3.375,4.25 0.408,1.085 0.6755,2.42275 0.8125,3.71875 0.068,0.652 0.109,1.30625 0.125,1.90625 0.039,2.169 -0.18475,4.28475 -0.84375,6.09375 -1.094,3.005 -3.38875,5.15625 -7.59375,5.15625 -4.342,0 -6.41225,-2.51425 -7.40625,-5.15625 -0.91,-2.418 -0.90625,-4.96475 -0.90625,-5.84375 0,-0.686 0.0227,-1.41125 0.0937,-2.15625 0.291,-3.094 1.3245,-6.41775 4.3125,-7.96875 l -2.3125,-0.0312 2.3125,0 c 1.068,-0.549 2.40825,-0.875 4.03125,-0.875 z m -63.40625,21.75 c 2.451,0.715 5.487,1.535 7.375,2.25 0.439,0.18 1.1465,0.434 1.8125,0.875 1.039,0.691 2.03125,1.85275 2.03125,3.84375 0,2.604 -2.139,5.71875 -7.5,5.71875 -5.871,0 -7.8125,-3.64275 -7.8125,-6.09375 0,-1.345 0.4315,-2.49375 1.0625,-3.46875 0.879,-1.36 2.13825,-2.382 3.03125,-3.125 z m 31.8125,19.125 0.125,0 -0.125,0 z m 23.1875,0 0.125,0 -0.125,0 z"
   id="path19"
   inkscape:connector-curvature="0" />
	
	
	
	
	
	
</g>
</svg>